<?xml version="1.0" encoding="utf-8"?>
<!-- Generator: Adobe Illustrator 26.3.1, SVG Export Plug-In . SVG Version: 6.00 Build 0)  -->
<svg version="1.1" id="Layer_1" xmlns="http://www.w3.org/2000/svg" xmlns:xlink="http://www.w3.org/1999/xlink" x="0px" y="0px"
	 viewBox="0 0 49.2 49.2" style="enable-background:new 0 0 49.2 49.2;" xml:space="preserve">
<style type="text/css">
	.st0{fill:none;}
	.st1{fill:#CC1515;}
	.st2{fill:#A51313;}
	.st3{fill:#07ADA1;}
	.st4{fill:#0B9688;}
	.st5{fill:#1B448E;}
	.st6{fill:#15396D;}
	.st7{display:none;fill:url(#SVGID_1_);stroke:#112D56;stroke-miterlimit:10;}
	.st8{display:none;fill:url(#SVGID_00000028309355068222597040000002858702159918169021_);stroke:#07756A;stroke-miterlimit:10;}
	.st9{fill:url(#SVGID_00000080190070351297808640000004479679738267399077_);stroke:#7A0B0B;stroke-miterlimit:10;}
</style>
<pattern  x="-225.4" y="-190.57" width="10.73" height="18.81" patternUnits="userSpaceOnUse" id="_x30_12_Red_Mesh" viewBox="10.77 -18.86 10.73 18.81" style="overflow:visible;">
	<g>
		<rect x="10.77" y="-18.86" class="st0" width="10.73" height="18.81"/>
		<g>
			<path class="st1" d="M32.28-1.66v-0.51v-3.1v-0.79l-0.06,0c-0.02,0-0.04-0.01-0.06-0.02l-1.54-1.54c0.19-0.28,0.3-0.61,0.3-0.94
				c0-0.33-0.1-0.66-0.3-0.94l1.54-1.54c0.02-0.02,0.08-0.03,0.1-0.03h0.01v-0.44v-3.1v-0.86c0,0,0,0-0.01,0
				c-0.02,0-0.08-0.01-0.1-0.03l-1.54-1.54c0.19-0.28,0.3-0.61,0.3-0.94c0-0.31-0.09-0.63-0.27-0.9h-0.06h-2.15
				c-0.18,0.27-0.27,0.59-0.27,0.9c0,0.33,0.1,0.65,0.29,0.94l-1.54,1.54c-0.02,0.02-0.04,0.02-0.06,0.03
				c-0.03,0-0.05-0.01-0.06-0.03l-1.54-1.54c0.2-0.28,0.3-0.61,0.29-0.94c0-0.31-0.09-0.63-0.27-0.9h-0.06h-2.15
				c-0.18,0.27-0.27,0.59-0.27,0.9c0,0.33,0.1,0.65,0.29,0.94l-1.54,1.54c-0.02,0.01-0.07,0-0.09,0v0.85v3.11v0.43
				c0.02,0,0.07,0.03,0.09,0.05l1.54,1.54c-0.2,0.28-0.29,0.61-0.29,0.94c0,0.32,0.1,0.66,0.29,0.94l-1.54,1.54
				c-0.02,0.01-0.07-0.01-0.09-0.01v0.79v3.11v0.5c0.02,0,0.07,0.04,0.09,0.05l1.54,1.54c-0.01,0.01-0.05,0.07-0.06,0.08L25.15,0
				l0.09-0.09l1.54-1.54c0.02-0.02,0.04-0.03,0.06-0.03c0.02,0,0.04,0.01,0.06,0.03l1.54,1.54c-0.01,0.01-0.05,0.06-0.06,0.08h2.14
				l0.08-0.08l1.54-1.54C32.17-1.65,32.25-1.66,32.28-1.66c0,0-0.06,0-0.06,0 M24.16-6.5l1.52,1.52c0.03,0.03,0.07,0.07,0.11,0.1
				c-0.32,0.29-0.53,0.7-0.53,1.17c0,0.39,0.14,0.75,0.38,1.02l-1.48,1.48L22.68-2.7c0.24-0.27,0.38-0.63,0.38-1.02
				c0-0.47-0.21-0.88-0.53-1.17c0.04-0.03,0.07-0.06,0.11-0.1L24.16-6.5z M25.84-14.25c-0.35,0.28-0.57,0.72-0.57,1.2
				c0,0.37,0.13,0.71,0.35,0.98l-1.45,1.45l-1.45-1.45c0.22-0.27,0.35-0.61,0.35-0.98c0-0.48-0.22-0.92-0.57-1.2
				c0.05-0.04,0.1-0.09,0.15-0.13l1.52-1.52l1.52,1.52C25.73-14.33,25.78-14.29,25.84-14.25 M28.45-9.49
				c-0.2,0.28-0.3,0.61-0.29,0.94c0,0.32,0.1,0.66,0.29,0.94l-1.54,1.54c-0.02,0.02-0.04,0.02-0.06,0.02
				c-0.03,0-0.05-0.01-0.06-0.02l-1.54-1.54c0.2-0.28,0.3-0.61,0.29-0.94c0-0.33-0.1-0.66-0.29-0.94l1.54-1.54
				c0.02-0.02,0.04-0.02,0.06-0.02c0.02,0,0.04,0.01,0.06,0.02L28.45-9.49z M29.53-10.61l-1.48-1.48c0.2-0.26,0.33-0.59,0.33-0.95
				c0-0.47-0.21-0.9-0.54-1.18c0.06-0.04,0.12-0.09,0.18-0.15l1.52-1.52l1.52,1.52c0.04,0.04,0.08,0.08,0.12,0.11
				c-0.36,0.28-0.6,0.73-0.6,1.23c0,0.39,0.14,0.74,0.38,1.01L29.53-10.61z M31.13-4.91c-0.34,0.28-0.56,0.71-0.56,1.19
				c0,0.4,0.15,0.77,0.41,1.05l-1.45,1.45l-1.51-1.51c0.22-0.27,0.36-0.61,0.36-0.99c0-0.45-0.2-0.86-0.5-1.14
				c0.05-0.04,0.1-0.08,0.14-0.12l1.52-1.52l1.52,1.52C31.08-4.95,31.11-4.93,31.13-4.91"/>
		</g>
		<g>
			<rect x="10.77" y="-18.86" class="st2" width="10.73" height="18.81"/>
			<path class="st1" d="M21.55-1.66v-0.51v-3.1v-0.79l-0.06,0c-0.02,0-0.04-0.01-0.06-0.02l-1.54-1.54c0.19-0.28,0.3-0.61,0.3-0.94
				c0-0.33-0.1-0.66-0.3-0.94l1.54-1.54c0.02-0.02,0.08-0.03,0.1-0.03h0.01v-0.44v-3.1v-0.86c0,0,0,0-0.01,0
				c-0.02,0-0.08-0.01-0.1-0.03l-1.54-1.54c0.19-0.28,0.3-0.61,0.3-0.94c0-0.31-0.09-0.63-0.27-0.9h-0.06H17.7
				c-0.18,0.27-0.27,0.59-0.27,0.9c0,0.33,0.1,0.65,0.29,0.94l-1.54,1.54c-0.02,0.02-0.04,0.02-0.06,0.03
				c-0.03,0-0.05-0.01-0.06-0.03l-1.54-1.54c0.2-0.28,0.3-0.61,0.29-0.94c0-0.31-0.09-0.63-0.27-0.9h-0.06h-2.15
				c-0.18,0.27-0.27,0.59-0.27,0.9c0,0.33,0.1,0.65,0.29,0.94l-1.54,1.54c-0.02,0.01-0.07,0-0.09,0v0.85v3.11v0.43
				c0.02,0,0.07,0.03,0.09,0.05l1.54,1.54c-0.2,0.28-0.29,0.61-0.29,0.94c0,0.32,0.1,0.66,0.29,0.94l-1.54,1.54
				c-0.02,0.01-0.07-0.01-0.09-0.01v0.79v3.11v0.5c0.02,0,0.07,0.04,0.09,0.05l1.54,1.54c-0.01,0.01-0.05,0.07-0.06,0.08L14.42,0
				l0.09-0.09l1.54-1.54c0.02-0.02,0.04-0.03,0.06-0.03c0.02,0,0.04,0.01,0.06,0.03l1.54,1.54c-0.01,0.01-0.05,0.06-0.06,0.08h2.14
				l0.08-0.08l1.54-1.54C21.44-1.65,21.52-1.66,21.55-1.66c0,0-0.06,0-0.06,0 M13.44-6.5l1.52,1.52c0.03,0.03,0.07,0.07,0.11,0.1
				c-0.32,0.29-0.53,0.7-0.53,1.17c0,0.39,0.14,0.75,0.38,1.02l-1.48,1.48L11.95-2.7c0.24-0.27,0.38-0.63,0.38-1.02
				c0-0.47-0.21-0.88-0.53-1.17c0.04-0.03,0.07-0.06,0.11-0.1L13.44-6.5z M15.11-14.25c-0.35,0.28-0.57,0.72-0.57,1.2
				c0,0.37,0.13,0.71,0.35,0.98l-1.45,1.45l-1.45-1.45c0.22-0.27,0.35-0.61,0.35-0.98c0-0.48-0.22-0.92-0.57-1.2
				c0.05-0.04,0.1-0.09,0.15-0.13l1.52-1.52l1.52,1.52C15.01-14.33,15.06-14.29,15.11-14.25 M17.73-9.49
				c-0.2,0.28-0.3,0.61-0.29,0.94c0,0.32,0.1,0.66,0.29,0.94l-1.54,1.54c-0.02,0.02-0.04,0.02-0.06,0.02
				c-0.03,0-0.05-0.01-0.06-0.02l-1.54-1.54c0.2-0.28,0.3-0.61,0.29-0.94c0-0.33-0.1-0.66-0.29-0.94l1.54-1.54
				c0.02-0.02,0.04-0.02,0.06-0.02c0.02,0,0.04,0.01,0.06,0.02L17.73-9.49z M18.8-10.61l-1.48-1.48c0.2-0.26,0.33-0.59,0.33-0.95
				c0-0.47-0.21-0.9-0.54-1.18c0.06-0.04,0.12-0.09,0.18-0.15l1.52-1.52l1.52,1.52c0.04,0.04,0.08,0.08,0.12,0.11
				c-0.36,0.28-0.6,0.73-0.6,1.23c0,0.39,0.14,0.74,0.38,1.01L18.8-10.61z M20.41-4.91c-0.34,0.28-0.56,0.71-0.56,1.19
				c0,0.4,0.15,0.77,0.41,1.05L18.8-1.21l-1.51-1.51c0.22-0.27,0.36-0.61,0.36-0.99c0-0.45-0.2-0.86-0.5-1.14
				c0.05-0.04,0.1-0.08,0.14-0.12L18.8-6.5l1.52,1.52C20.35-4.95,20.38-4.93,20.41-4.91"/>
		</g>
		<g>
			<path class="st1" d="M10.82-1.66v-0.51v-3.1v-0.79l-0.06,0c-0.02,0-0.04-0.01-0.06-0.02L9.16-7.62c0.19-0.28,0.3-0.61,0.3-0.94
				c0-0.33-0.1-0.66-0.3-0.94l1.54-1.54c0.02-0.02,0.08-0.03,0.1-0.03h0.01v-0.44v-3.1v-0.86c0,0,0,0-0.01,0
				c-0.02,0-0.08-0.01-0.1-0.03l-1.54-1.54c0.19-0.28,0.3-0.61,0.3-0.94c0-0.31-0.09-0.63-0.27-0.9H9.12H6.97
				c-0.18,0.27-0.27,0.59-0.27,0.9c0,0.33,0.1,0.65,0.29,0.94l-1.54,1.54c-0.02,0.02-0.04,0.02-0.06,0.03
				c-0.03,0-0.05-0.01-0.06-0.03l-1.54-1.54c0.2-0.28,0.3-0.61,0.29-0.94c0-0.31-0.09-0.63-0.27-0.9H3.76H1.6
				c-0.18,0.27-0.27,0.59-0.27,0.9c0,0.33,0.1,0.65,0.29,0.94l-1.54,1.54c-0.02,0.01-0.07,0-0.09,0v0.85v3.11v0.43
				c0.02,0,0.07,0.03,0.09,0.05l1.54,1.54c-0.2,0.28-0.29,0.61-0.29,0.94c0,0.32,0.1,0.66,0.29,0.94L0.09-6.08
				C0.07-6.06,0.02-6.09,0-6.09v0.79v3.11v0.5c0.02,0,0.07,0.04,0.09,0.05l1.54,1.54C1.62-0.08,1.58-0.02,1.57-0.01L3.69,0
				l0.09-0.09l1.54-1.54c0.02-0.02,0.04-0.03,0.06-0.03c0.02,0,0.04,0.01,0.06,0.03L7-0.09C6.99-0.08,6.95-0.03,6.94-0.01h2.14
				l0.08-0.08l1.54-1.54C10.72-1.65,10.79-1.66,10.82-1.66c0,0-0.06,0-0.06,0 M2.71-6.5l1.52,1.52c0.03,0.03,0.07,0.07,0.11,0.1
				C4.01-4.6,3.81-4.18,3.81-3.71c0,0.39,0.14,0.75,0.38,1.02L2.71-1.21L1.23-2.7c0.24-0.27,0.38-0.63,0.38-1.02
				c0-0.47-0.21-0.88-0.53-1.17c0.04-0.03,0.07-0.06,0.11-0.1L2.71-6.5z M4.38-14.25c-0.35,0.28-0.57,0.72-0.57,1.2
				c0,0.37,0.13,0.71,0.35,0.98l-1.45,1.45l-1.45-1.45c0.22-0.27,0.35-0.61,0.35-0.98c0-0.48-0.22-0.92-0.57-1.2
				c0.05-0.04,0.1-0.09,0.15-0.13l1.52-1.52l1.52,1.52C4.28-14.33,4.33-14.29,4.38-14.25 M7-9.49C6.8-9.21,6.7-8.88,6.7-8.55
				C6.7-8.23,6.8-7.9,7-7.62L5.45-6.08C5.44-6.06,5.42-6.05,5.39-6.05c-0.03,0-0.05-0.01-0.06-0.02L3.79-7.62
				c0.2-0.28,0.3-0.61,0.29-0.94c0-0.33-0.1-0.66-0.29-0.94l1.54-1.54c0.02-0.02,0.04-0.02,0.06-0.02c0.02,0,0.04,0.01,0.06,0.02
				L7-9.49z M8.08-10.61l-1.48-1.48c0.2-0.26,0.33-0.59,0.33-0.95c0-0.47-0.21-0.9-0.54-1.18c0.06-0.04,0.12-0.09,0.18-0.15
				l1.52-1.52l1.52,1.52c0.04,0.04,0.08,0.08,0.12,0.11c-0.36,0.28-0.6,0.73-0.6,1.23c0,0.39,0.14,0.74,0.38,1.01L8.08-10.61z
				 M9.68-4.91C9.33-4.62,9.12-4.19,9.12-3.71c0,0.4,0.15,0.77,0.41,1.05L8.08-1.21L6.56-2.73c0.22-0.27,0.36-0.61,0.36-0.99
				c0-0.45-0.2-0.86-0.5-1.14c0.05-0.04,0.09-0.08,0.14-0.12L8.08-6.5L9.6-4.98C9.62-4.95,9.65-4.93,9.68-4.91"/>
		</g>
		<g>
			<path class="st1" d="M32.28-20.47v-0.51v-3.1v-0.79l-0.06,0c-0.02,0-0.04-0.01-0.06-0.02l-1.54-1.54c0.19-0.28,0.3-0.61,0.3-0.94
				c0-0.33-0.1-0.66-0.3-0.94l1.54-1.54c0.02-0.02,0.08-0.03,0.1-0.03h0.01v-0.44v-3.1v-0.86c0,0,0,0-0.01,0
				c-0.02,0-0.08-0.01-0.1-0.03l-1.54-1.54c0.19-0.28,0.3-0.61,0.3-0.94c0-0.31-0.09-0.63-0.27-0.9h-0.06h-2.15
				c-0.18,0.27-0.27,0.59-0.27,0.9c0,0.33,0.1,0.65,0.29,0.94l-1.54,1.54c-0.02,0.02-0.04,0.02-0.06,0.03
				c-0.03,0-0.05-0.01-0.06-0.03l-1.54-1.54c0.2-0.28,0.3-0.61,0.29-0.94c0-0.31-0.09-0.63-0.27-0.9h-0.06h-2.15
				c-0.18,0.27-0.27,0.59-0.27,0.9c0,0.33,0.1,0.65,0.29,0.94l-1.54,1.54c-0.02,0.01-0.07,0-0.09,0v0.85v3.11v0.43
				c0.02,0,0.07,0.03,0.09,0.05l1.54,1.54c-0.2,0.28-0.29,0.61-0.29,0.94c0,0.32,0.1,0.66,0.29,0.94l-1.54,1.54
				c-0.02,0.01-0.07-0.01-0.09-0.01v0.79V-21v0.5c0.02,0,0.07,0.04,0.09,0.05l1.54,1.54c-0.01,0.01-0.05,0.07-0.06,0.08l2.12,0.01
				l0.09-0.09l1.54-1.54c0.02-0.02,0.04-0.03,0.06-0.03c0.02,0,0.04,0.01,0.06,0.03l1.54,1.54c-0.01,0.01-0.05,0.06-0.06,0.08h2.14
				l0.08-0.08l1.54-1.54C32.17-20.46,32.25-20.47,32.28-20.47c0,0-0.06,0-0.06,0 M24.16-25.31l1.52,1.52
				c0.03,0.03,0.07,0.07,0.11,0.1c-0.32,0.29-0.53,0.7-0.53,1.17c0,0.39,0.14,0.75,0.38,1.02l-1.48,1.48l-1.48-1.48
				c0.24-0.27,0.38-0.63,0.38-1.02c0-0.47-0.21-0.88-0.53-1.17c0.04-0.03,0.07-0.06,0.11-0.1L24.16-25.31z M25.84-33.06
				c-0.35,0.28-0.57,0.72-0.57,1.2c0,0.37,0.13,0.71,0.35,0.98l-1.45,1.45l-1.45-1.45c0.22-0.27,0.35-0.61,0.35-0.98
				c0-0.48-0.22-0.92-0.57-1.2c0.05-0.04,0.1-0.09,0.15-0.13l1.52-1.52l1.52,1.52C25.73-33.14,25.78-33.1,25.84-33.06 M28.45-28.3
				c-0.2,0.28-0.3,0.61-0.29,0.94c0,0.32,0.1,0.66,0.29,0.94l-1.54,1.54c-0.02,0.02-0.04,0.02-0.06,0.02
				c-0.03,0-0.05-0.01-0.06-0.02l-1.54-1.54c0.2-0.28,0.3-0.61,0.29-0.94c0-0.33-0.1-0.66-0.29-0.94l1.54-1.54
				c0.02-0.02,0.04-0.02,0.06-0.02c0.02,0,0.04,0.01,0.06,0.02L28.45-28.3z M29.53-29.42l-1.48-1.48c0.2-0.26,0.33-0.59,0.33-0.95
				c0-0.47-0.21-0.9-0.54-1.18c0.06-0.04,0.12-0.09,0.18-0.15l1.52-1.52l1.52,1.52c0.04,0.04,0.08,0.08,0.12,0.11
				c-0.36,0.28-0.6,0.73-0.6,1.23c0,0.39,0.14,0.74,0.38,1.01L29.53-29.42z M31.13-23.72c-0.34,0.28-0.56,0.71-0.56,1.19
				c0,0.4,0.15,0.77,0.41,1.05l-1.45,1.45l-1.51-1.51c0.22-0.27,0.36-0.61,0.36-0.99c0-0.45-0.2-0.86-0.5-1.14
				c0.05-0.04,0.1-0.08,0.14-0.12l1.52-1.52l1.52,1.52C31.08-23.76,31.11-23.74,31.13-23.72"/>
		</g>
		<g>
			<path class="st1" d="M21.55-20.47v-0.51v-3.1v-0.79l-0.06,0c-0.02,0-0.04-0.01-0.06-0.02l-1.54-1.54c0.19-0.28,0.3-0.61,0.3-0.94
				c0-0.33-0.1-0.66-0.3-0.94l1.54-1.54c0.02-0.02,0.08-0.03,0.1-0.03h0.01v-0.44v-3.1v-0.86c0,0,0,0-0.01,0
				c-0.02,0-0.08-0.01-0.1-0.03l-1.54-1.54c0.19-0.28,0.3-0.61,0.3-0.94c0-0.31-0.09-0.63-0.27-0.9h-0.06H17.7
				c-0.18,0.27-0.27,0.59-0.27,0.9c0,0.33,0.1,0.65,0.29,0.94l-1.54,1.54c-0.02,0.02-0.04,0.02-0.06,0.03
				c-0.03,0-0.05-0.01-0.06-0.03l-1.54-1.54c0.2-0.28,0.3-0.61,0.29-0.94c0-0.31-0.09-0.63-0.27-0.9h-0.06h-2.15
				c-0.18,0.27-0.27,0.59-0.27,0.9c0,0.33,0.1,0.65,0.29,0.94l-1.54,1.54c-0.02,0.01-0.07,0-0.09,0v0.85v3.11v0.43
				c0.02,0,0.07,0.03,0.09,0.05l1.54,1.54c-0.2,0.28-0.29,0.61-0.29,0.94c0,0.32,0.1,0.66,0.29,0.94l-1.54,1.54
				c-0.02,0.01-0.07-0.01-0.09-0.01v0.79V-21v0.5c0.02,0,0.07,0.04,0.09,0.05l1.54,1.54c-0.01,0.01-0.05,0.07-0.06,0.08l2.12,0.01
				l0.09-0.09l1.54-1.54c0.02-0.02,0.04-0.03,0.06-0.03c0.02,0,0.04,0.01,0.06,0.03l1.54,1.54c-0.01,0.01-0.05,0.06-0.06,0.08h2.14
				l0.08-0.08l1.54-1.54C21.44-20.46,21.52-20.47,21.55-20.47c0,0-0.06,0-0.06,0 M13.44-25.31l1.52,1.52
				c0.03,0.03,0.07,0.07,0.11,0.1c-0.32,0.29-0.53,0.7-0.53,1.17c0,0.39,0.14,0.75,0.38,1.02l-1.48,1.48l-1.48-1.48
				c0.24-0.27,0.38-0.63,0.38-1.02c0-0.47-0.21-0.88-0.53-1.17c0.04-0.03,0.07-0.06,0.11-0.1L13.44-25.31z M15.11-33.06
				c-0.35,0.28-0.57,0.72-0.57,1.2c0,0.37,0.13,0.71,0.35,0.98l-1.45,1.45l-1.45-1.45c0.22-0.27,0.35-0.61,0.35-0.98
				c0-0.48-0.22-0.92-0.57-1.2c0.05-0.04,0.1-0.09,0.15-0.13l1.52-1.52l1.52,1.52C15.01-33.14,15.06-33.1,15.11-33.06 M17.73-28.3
				c-0.2,0.28-0.3,0.61-0.29,0.94c0,0.32,0.1,0.66,0.29,0.94l-1.54,1.54c-0.02,0.02-0.04,0.02-0.06,0.02
				c-0.03,0-0.05-0.01-0.06-0.02l-1.54-1.54c0.2-0.28,0.3-0.61,0.29-0.94c0-0.33-0.1-0.66-0.29-0.94l1.54-1.54
				c0.02-0.02,0.04-0.02,0.06-0.02c0.02,0,0.04,0.01,0.06,0.02L17.73-28.3z M18.8-29.42l-1.48-1.48c0.2-0.26,0.33-0.59,0.33-0.95
				c0-0.47-0.21-0.9-0.54-1.18c0.06-0.04,0.12-0.09,0.18-0.15l1.52-1.52l1.52,1.52c0.04,0.04,0.08,0.08,0.12,0.11
				c-0.36,0.28-0.6,0.73-0.6,1.23c0,0.39,0.14,0.74,0.38,1.01L18.8-29.42z M20.41-23.72c-0.34,0.28-0.56,0.71-0.56,1.19
				c0,0.4,0.15,0.77,0.41,1.05l-1.45,1.45l-1.51-1.51c0.22-0.27,0.36-0.61,0.36-0.99c0-0.45-0.2-0.86-0.5-1.14
				c0.05-0.04,0.1-0.08,0.14-0.12l1.52-1.52l1.52,1.52C20.35-23.76,20.38-23.74,20.41-23.72"/>
		</g>
		<g>
			<path class="st1" d="M10.82-20.47v-0.51v-3.1v-0.79l-0.06,0c-0.02,0-0.04-0.01-0.06-0.02l-1.54-1.54c0.19-0.28,0.3-0.61,0.3-0.94
				c0-0.33-0.1-0.66-0.3-0.94l1.54-1.54c0.02-0.02,0.08-0.03,0.1-0.03h0.01v-0.44v-3.1v-0.86c0,0,0,0-0.01,0
				c-0.02,0-0.08-0.01-0.1-0.03l-1.54-1.54c0.19-0.28,0.3-0.61,0.3-0.94c0-0.31-0.09-0.63-0.27-0.9H9.12H6.97
				c-0.18,0.27-0.27,0.59-0.27,0.9c0,0.33,0.1,0.65,0.29,0.94l-1.54,1.54c-0.02,0.02-0.04,0.02-0.06,0.03
				c-0.03,0-0.05-0.01-0.06-0.03l-1.54-1.54c0.2-0.28,0.3-0.61,0.29-0.94c0-0.31-0.09-0.63-0.27-0.9H3.76H1.6
				c-0.18,0.27-0.27,0.59-0.27,0.9c0,0.33,0.1,0.65,0.29,0.94l-1.54,1.54c-0.02,0.01-0.07,0-0.09,0v0.85v3.11v0.43
				c0.02,0,0.07,0.03,0.09,0.05l1.54,1.54c-0.2,0.28-0.29,0.61-0.29,0.94c0,0.32,0.1,0.66,0.29,0.94l-1.54,1.54
				C0.07-24.87,0.02-24.9,0-24.9v0.79V-21v0.5c0.02,0,0.07,0.04,0.09,0.05l1.54,1.54c-0.01,0.01-0.05,0.07-0.06,0.08l2.12,0.01
				l0.09-0.09l1.54-1.54c0.02-0.02,0.04-0.03,0.06-0.03c0.02,0,0.04,0.01,0.06,0.03L7-18.9c-0.01,0.01-0.05,0.06-0.06,0.08h2.14
				l0.08-0.08l1.54-1.54C10.72-20.46,10.79-20.47,10.82-20.47c0,0-0.06,0-0.06,0 M2.71-25.31l1.52,1.52
				c0.03,0.03,0.07,0.07,0.11,0.1c-0.32,0.29-0.53,0.7-0.53,1.17c0,0.39,0.14,0.75,0.38,1.02l-1.48,1.48l-1.48-1.48
				c0.24-0.27,0.38-0.63,0.38-1.02c0-0.47-0.21-0.88-0.53-1.17c0.04-0.03,0.07-0.06,0.11-0.1L2.71-25.31z M4.38-33.06
				c-0.35,0.28-0.57,0.72-0.57,1.2c0,0.37,0.13,0.71,0.35,0.98l-1.45,1.45l-1.45-1.45c0.22-0.27,0.35-0.61,0.35-0.98
				c0-0.48-0.22-0.92-0.57-1.2c0.05-0.04,0.1-0.09,0.15-0.13l1.52-1.52l1.52,1.52C4.28-33.14,4.33-33.1,4.38-33.06 M7-28.3
				c-0.2,0.28-0.3,0.61-0.29,0.94c0,0.32,0.1,0.66,0.29,0.94l-1.54,1.54c-0.02,0.02-0.04,0.02-0.06,0.02
				c-0.03,0-0.05-0.01-0.06-0.02l-1.54-1.54c0.2-0.28,0.3-0.61,0.29-0.94c0-0.33-0.1-0.66-0.29-0.94l1.54-1.54
				c0.02-0.02,0.04-0.02,0.06-0.02c0.02,0,0.04,0.01,0.06,0.02L7-28.3z M8.08-29.42L6.59-30.9c0.2-0.26,0.33-0.59,0.33-0.95
				c0-0.47-0.21-0.9-0.54-1.18c0.06-0.04,0.12-0.09,0.18-0.15l1.52-1.52l1.52,1.52c0.04,0.04,0.08,0.08,0.12,0.11
				c-0.36,0.28-0.6,0.73-0.6,1.23c0,0.39,0.14,0.74,0.38,1.01L8.08-29.42z M9.68-23.72C9.33-23.43,9.12-23,9.12-22.52
				c0,0.4,0.15,0.77,0.41,1.05l-1.45,1.45l-1.51-1.51c0.22-0.27,0.36-0.61,0.36-0.99c0-0.45-0.2-0.86-0.5-1.14
				c0.05-0.04,0.09-0.08,0.14-0.12l1.52-1.52l1.52,1.52C9.62-23.76,9.65-23.74,9.68-23.72"/>
		</g>
	</g>
</pattern>
<pattern  x="-225.4" y="-190.57" width="10.73" height="18.81" patternUnits="userSpaceOnUse" id="_x30_13_Aqua_Mesh" viewBox="10.77 -18.86 10.73 18.81" style="overflow:visible;">
	<g>
		<rect x="10.77" y="-18.86" class="st0" width="10.73" height="18.81"/>
		<g>
			<path class="st3" d="M32.28-1.66v-0.51v-3.1v-0.79l-0.06,0c-0.02,0-0.04-0.01-0.06-0.02l-1.54-1.54c0.19-0.28,0.3-0.61,0.3-0.94
				c0-0.33-0.1-0.66-0.3-0.94l1.54-1.54c0.02-0.02,0.08-0.03,0.1-0.03h0.01v-0.44v-3.1v-0.86c0,0,0,0-0.01,0
				c-0.02,0-0.08-0.01-0.1-0.03l-1.54-1.54c0.19-0.28,0.3-0.61,0.3-0.94c0-0.31-0.09-0.63-0.27-0.9h-0.06h-2.15
				c-0.18,0.27-0.27,0.59-0.27,0.9c0,0.33,0.1,0.65,0.29,0.94l-1.54,1.54c-0.02,0.02-0.04,0.02-0.06,0.03
				c-0.03,0-0.05-0.01-0.06-0.03l-1.54-1.54c0.2-0.28,0.3-0.61,0.29-0.94c0-0.31-0.09-0.63-0.27-0.9h-0.06h-2.15
				c-0.18,0.27-0.27,0.59-0.27,0.9c0,0.33,0.1,0.65,0.29,0.94l-1.54,1.54c-0.02,0.01-0.07,0-0.09,0v0.85v3.11v0.43
				c0.02,0,0.07,0.03,0.09,0.05l1.54,1.54c-0.2,0.28-0.29,0.61-0.29,0.94c0,0.32,0.1,0.66,0.29,0.94l-1.54,1.54
				c-0.02,0.01-0.07-0.01-0.09-0.01v0.79v3.11v0.5c0.02,0,0.07,0.04,0.09,0.05l1.54,1.54c-0.01,0.01-0.05,0.07-0.06,0.08L25.15,0
				l0.09-0.09l1.54-1.54c0.02-0.02,0.04-0.03,0.06-0.03c0.02,0,0.04,0.01,0.06,0.03l1.54,1.54c-0.01,0.01-0.05,0.06-0.06,0.08h2.14
				l0.08-0.08l1.54-1.54C32.17-1.65,32.25-1.66,32.28-1.66c0,0-0.06,0-0.06,0 M24.16-6.5l1.52,1.52c0.03,0.03,0.07,0.07,0.11,0.1
				c-0.32,0.29-0.53,0.7-0.53,1.17c0,0.39,0.14,0.75,0.38,1.02l-1.48,1.48L22.68-2.7c0.24-0.27,0.38-0.63,0.38-1.02
				c0-0.47-0.21-0.88-0.53-1.17c0.04-0.03,0.07-0.06,0.11-0.1L24.16-6.5z M25.84-14.25c-0.35,0.28-0.57,0.72-0.57,1.2
				c0,0.37,0.13,0.71,0.35,0.98l-1.45,1.45l-1.45-1.45c0.22-0.27,0.35-0.61,0.35-0.98c0-0.48-0.22-0.92-0.57-1.2
				c0.05-0.04,0.1-0.09,0.15-0.13l1.52-1.52l1.52,1.52C25.73-14.33,25.78-14.29,25.84-14.25 M28.45-9.49
				c-0.2,0.28-0.3,0.61-0.29,0.94c0,0.32,0.1,0.66,0.29,0.94l-1.54,1.54c-0.02,0.02-0.04,0.02-0.06,0.02
				c-0.03,0-0.05-0.01-0.06-0.02l-1.54-1.54c0.2-0.28,0.3-0.61,0.29-0.94c0-0.33-0.1-0.66-0.29-0.94l1.54-1.54
				c0.02-0.02,0.04-0.02,0.06-0.02c0.02,0,0.04,0.01,0.06,0.02L28.45-9.49z M29.53-10.61l-1.48-1.48c0.2-0.26,0.33-0.59,0.33-0.95
				c0-0.47-0.21-0.9-0.54-1.18c0.06-0.04,0.12-0.09,0.18-0.15l1.52-1.52l1.52,1.52c0.04,0.04,0.08,0.08,0.12,0.11
				c-0.36,0.28-0.6,0.73-0.6,1.23c0,0.39,0.14,0.74,0.38,1.01L29.53-10.61z M31.13-4.91c-0.34,0.28-0.56,0.71-0.56,1.19
				c0,0.4,0.15,0.77,0.41,1.05l-1.45,1.45l-1.51-1.51c0.22-0.27,0.36-0.61,0.36-0.99c0-0.45-0.2-0.86-0.5-1.14
				c0.05-0.04,0.1-0.08,0.14-0.12l1.52-1.52l1.52,1.52C31.08-4.95,31.11-4.93,31.13-4.91"/>
		</g>
		<g>
			<rect x="10.77" y="-18.86" class="st4" width="10.73" height="18.81"/>
			<path class="st3" d="M21.55-1.66v-0.51v-3.1v-0.79l-0.06,0c-0.02,0-0.04-0.01-0.06-0.02l-1.54-1.54c0.19-0.28,0.3-0.61,0.3-0.94
				c0-0.33-0.1-0.66-0.3-0.94l1.54-1.54c0.02-0.02,0.08-0.03,0.1-0.03h0.01v-0.44v-3.1v-0.86c0,0,0,0-0.01,0
				c-0.02,0-0.08-0.01-0.1-0.03l-1.54-1.54c0.19-0.28,0.3-0.61,0.3-0.94c0-0.31-0.09-0.63-0.27-0.9h-0.06H17.7
				c-0.18,0.27-0.27,0.59-0.27,0.9c0,0.33,0.1,0.65,0.29,0.94l-1.54,1.54c-0.02,0.02-0.04,0.02-0.06,0.03
				c-0.03,0-0.05-0.01-0.06-0.03l-1.54-1.54c0.2-0.28,0.3-0.61,0.29-0.94c0-0.31-0.09-0.63-0.27-0.9h-0.06h-2.15
				c-0.18,0.27-0.27,0.59-0.27,0.9c0,0.33,0.1,0.65,0.29,0.94l-1.54,1.54c-0.02,0.01-0.07,0-0.09,0v0.85v3.11v0.43
				c0.02,0,0.07,0.03,0.09,0.05l1.54,1.54c-0.2,0.28-0.29,0.61-0.29,0.94c0,0.32,0.1,0.66,0.29,0.94l-1.54,1.54
				c-0.02,0.01-0.07-0.01-0.09-0.01v0.79v3.11v0.5c0.02,0,0.07,0.04,0.09,0.05l1.54,1.54c-0.01,0.01-0.05,0.07-0.06,0.08L14.42,0
				l0.09-0.09l1.54-1.54c0.02-0.02,0.04-0.03,0.06-0.03c0.02,0,0.04,0.01,0.06,0.03l1.54,1.54c-0.01,0.01-0.05,0.06-0.06,0.08h2.14
				l0.08-0.08l1.54-1.54C21.44-1.65,21.52-1.66,21.55-1.66c0,0-0.06,0-0.06,0 M13.44-6.5l1.52,1.52c0.03,0.03,0.07,0.07,0.11,0.1
				c-0.32,0.29-0.53,0.7-0.53,1.17c0,0.39,0.14,0.75,0.38,1.02l-1.48,1.48L11.95-2.7c0.24-0.27,0.38-0.63,0.38-1.02
				c0-0.47-0.21-0.88-0.53-1.17c0.04-0.03,0.07-0.06,0.11-0.1L13.44-6.5z M15.11-14.25c-0.35,0.28-0.57,0.72-0.57,1.2
				c0,0.37,0.13,0.71,0.35,0.98l-1.45,1.45l-1.45-1.45c0.22-0.27,0.35-0.61,0.35-0.98c0-0.48-0.22-0.92-0.57-1.2
				c0.05-0.04,0.1-0.09,0.15-0.13l1.52-1.52l1.52,1.52C15.01-14.33,15.06-14.29,15.11-14.25 M17.73-9.49
				c-0.2,0.28-0.3,0.61-0.29,0.94c0,0.32,0.1,0.66,0.29,0.94l-1.54,1.54c-0.02,0.02-0.04,0.02-0.06,0.02
				c-0.03,0-0.05-0.01-0.06-0.02l-1.54-1.54c0.2-0.28,0.3-0.61,0.29-0.94c0-0.33-0.1-0.66-0.29-0.94l1.54-1.54
				c0.02-0.02,0.04-0.02,0.06-0.02c0.02,0,0.04,0.01,0.06,0.02L17.73-9.49z M18.8-10.61l-1.48-1.48c0.2-0.26,0.33-0.59,0.33-0.95
				c0-0.47-0.21-0.9-0.54-1.18c0.06-0.04,0.12-0.09,0.18-0.15l1.52-1.52l1.52,1.52c0.04,0.04,0.08,0.08,0.12,0.11
				c-0.36,0.28-0.6,0.73-0.6,1.23c0,0.39,0.14,0.74,0.38,1.01L18.8-10.61z M20.41-4.91c-0.34,0.28-0.56,0.71-0.56,1.19
				c0,0.4,0.15,0.77,0.41,1.05L18.8-1.21l-1.51-1.51c0.22-0.27,0.36-0.61,0.36-0.99c0-0.45-0.2-0.86-0.5-1.14
				c0.05-0.04,0.1-0.08,0.14-0.12L18.8-6.5l1.52,1.52C20.35-4.95,20.38-4.93,20.41-4.91"/>
		</g>
		<g>
			<path class="st3" d="M10.82-1.66v-0.51v-3.1v-0.79l-0.06,0c-0.02,0-0.04-0.01-0.06-0.02L9.16-7.62c0.19-0.28,0.3-0.61,0.3-0.94
				c0-0.33-0.1-0.66-0.3-0.94l1.54-1.54c0.02-0.02,0.08-0.03,0.1-0.03h0.01v-0.44v-3.1v-0.86c0,0,0,0-0.01,0
				c-0.02,0-0.08-0.01-0.1-0.03l-1.54-1.54c0.19-0.28,0.3-0.61,0.3-0.94c0-0.31-0.09-0.63-0.27-0.9H9.12H6.97
				c-0.18,0.27-0.27,0.59-0.27,0.9c0,0.33,0.1,0.65,0.29,0.94l-1.54,1.54c-0.02,0.02-0.04,0.02-0.06,0.03
				c-0.03,0-0.05-0.01-0.06-0.03l-1.54-1.54c0.2-0.28,0.3-0.61,0.29-0.94c0-0.31-0.09-0.63-0.27-0.9H3.76H1.6
				c-0.18,0.27-0.27,0.59-0.27,0.9c0,0.33,0.1,0.65,0.29,0.94l-1.54,1.54c-0.02,0.01-0.07,0-0.09,0v0.85v3.11v0.43
				c0.02,0,0.07,0.03,0.09,0.05l1.54,1.54c-0.2,0.28-0.29,0.61-0.29,0.94c0,0.32,0.1,0.66,0.29,0.94L0.09-6.08
				C0.07-6.06,0.02-6.09,0-6.09v0.79v3.11v0.5c0.02,0,0.07,0.04,0.09,0.05l1.54,1.54C1.62-0.08,1.58-0.02,1.57-0.01L3.69,0
				l0.09-0.09l1.54-1.54c0.02-0.02,0.04-0.03,0.06-0.03c0.02,0,0.04,0.01,0.06,0.03L7-0.09C6.99-0.08,6.95-0.03,6.94-0.01h2.14
				l0.08-0.08l1.54-1.54C10.72-1.65,10.79-1.66,10.82-1.66c0,0-0.06,0-0.06,0 M2.71-6.5l1.52,1.52c0.03,0.03,0.07,0.07,0.11,0.1
				C4.01-4.6,3.81-4.18,3.81-3.71c0,0.39,0.14,0.75,0.38,1.02L2.71-1.21L1.23-2.7c0.24-0.27,0.38-0.63,0.38-1.02
				c0-0.47-0.21-0.88-0.53-1.17c0.04-0.03,0.07-0.06,0.11-0.1L2.71-6.5z M4.38-14.25c-0.35,0.28-0.57,0.72-0.57,1.2
				c0,0.37,0.13,0.71,0.35,0.98l-1.45,1.45l-1.45-1.45c0.22-0.27,0.35-0.61,0.35-0.98c0-0.48-0.22-0.92-0.57-1.2
				c0.05-0.04,0.1-0.09,0.15-0.13l1.52-1.52l1.52,1.52C4.28-14.33,4.33-14.29,4.38-14.25 M7-9.49C6.8-9.21,6.7-8.88,6.7-8.55
				C6.7-8.23,6.8-7.9,7-7.62L5.45-6.08C5.44-6.06,5.42-6.05,5.39-6.05c-0.03,0-0.05-0.01-0.06-0.02L3.79-7.62
				c0.2-0.28,0.3-0.61,0.29-0.94c0-0.33-0.1-0.66-0.29-0.94l1.54-1.54c0.02-0.02,0.04-0.02,0.06-0.02c0.02,0,0.04,0.01,0.06,0.02
				L7-9.49z M8.08-10.61l-1.48-1.48c0.2-0.26,0.33-0.59,0.33-0.95c0-0.47-0.21-0.9-0.54-1.18c0.06-0.04,0.12-0.09,0.18-0.15
				l1.52-1.52l1.52,1.52c0.04,0.04,0.08,0.08,0.12,0.11c-0.36,0.28-0.6,0.73-0.6,1.23c0,0.39,0.14,0.74,0.38,1.01L8.08-10.61z
				 M9.68-4.91C9.33-4.62,9.12-4.19,9.12-3.71c0,0.4,0.15,0.77,0.41,1.05L8.08-1.21L6.56-2.73c0.22-0.27,0.36-0.61,0.36-0.99
				c0-0.45-0.2-0.86-0.5-1.14c0.05-0.04,0.09-0.08,0.14-0.12L8.08-6.5L9.6-4.98C9.62-4.95,9.65-4.93,9.68-4.91"/>
		</g>
		<g>
			<path class="st3" d="M32.28-20.47v-0.51v-3.1v-0.79l-0.06,0c-0.02,0-0.04-0.01-0.06-0.02l-1.54-1.54c0.19-0.28,0.3-0.61,0.3-0.94
				c0-0.33-0.1-0.66-0.3-0.94l1.54-1.54c0.02-0.02,0.08-0.03,0.1-0.03h0.01v-0.44v-3.1v-0.86c0,0,0,0-0.01,0
				c-0.02,0-0.08-0.01-0.1-0.03l-1.54-1.54c0.19-0.28,0.3-0.61,0.3-0.94c0-0.31-0.09-0.63-0.27-0.9h-0.06h-2.15
				c-0.18,0.27-0.27,0.59-0.27,0.9c0,0.33,0.1,0.65,0.29,0.94l-1.54,1.54c-0.02,0.02-0.04,0.02-0.06,0.03
				c-0.03,0-0.05-0.01-0.06-0.03l-1.54-1.54c0.2-0.28,0.3-0.61,0.29-0.94c0-0.31-0.09-0.63-0.27-0.9h-0.06h-2.15
				c-0.18,0.27-0.27,0.59-0.27,0.9c0,0.33,0.1,0.65,0.29,0.94l-1.54,1.54c-0.02,0.01-0.07,0-0.09,0v0.85v3.11v0.43
				c0.02,0,0.07,0.03,0.09,0.05l1.54,1.54c-0.2,0.28-0.29,0.61-0.29,0.94c0,0.32,0.1,0.66,0.29,0.94l-1.54,1.54
				c-0.02,0.01-0.07-0.01-0.09-0.01v0.79V-21v0.5c0.02,0,0.07,0.04,0.09,0.05l1.54,1.54c-0.01,0.01-0.05,0.07-0.06,0.08l2.12,0.01
				l0.09-0.09l1.54-1.54c0.02-0.02,0.04-0.03,0.06-0.03c0.02,0,0.04,0.01,0.06,0.03l1.54,1.54c-0.01,0.01-0.05,0.06-0.06,0.08h2.14
				l0.08-0.08l1.54-1.54C32.17-20.46,32.25-20.47,32.28-20.47c0,0-0.06,0-0.06,0 M24.16-25.31l1.52,1.52
				c0.03,0.03,0.07,0.07,0.11,0.1c-0.32,0.29-0.53,0.7-0.53,1.17c0,0.39,0.14,0.75,0.38,1.02l-1.48,1.48l-1.48-1.48
				c0.24-0.27,0.38-0.63,0.38-1.02c0-0.47-0.21-0.88-0.53-1.17c0.04-0.03,0.07-0.06,0.11-0.1L24.16-25.31z M25.84-33.06
				c-0.35,0.28-0.57,0.72-0.57,1.2c0,0.37,0.13,0.71,0.35,0.98l-1.45,1.45l-1.45-1.45c0.22-0.27,0.35-0.61,0.35-0.98
				c0-0.48-0.22-0.92-0.57-1.2c0.05-0.04,0.1-0.09,0.15-0.13l1.52-1.52l1.52,1.52C25.73-33.14,25.78-33.1,25.84-33.06 M28.45-28.3
				c-0.2,0.28-0.3,0.61-0.29,0.94c0,0.32,0.1,0.66,0.29,0.94l-1.54,1.54c-0.02,0.02-0.04,0.02-0.06,0.02
				c-0.03,0-0.05-0.01-0.06-0.02l-1.54-1.54c0.2-0.28,0.3-0.61,0.29-0.94c0-0.33-0.1-0.66-0.29-0.94l1.54-1.54
				c0.02-0.02,0.04-0.02,0.06-0.02c0.02,0,0.04,0.01,0.06,0.02L28.45-28.3z M29.53-29.42l-1.48-1.48c0.2-0.26,0.33-0.59,0.33-0.95
				c0-0.47-0.21-0.9-0.54-1.18c0.06-0.04,0.12-0.09,0.18-0.15l1.52-1.52l1.52,1.52c0.04,0.04,0.08,0.08,0.12,0.11
				c-0.36,0.28-0.6,0.73-0.6,1.23c0,0.39,0.14,0.74,0.38,1.01L29.53-29.42z M31.13-23.72c-0.34,0.28-0.56,0.71-0.56,1.19
				c0,0.4,0.15,0.77,0.41,1.05l-1.45,1.45l-1.51-1.51c0.22-0.27,0.36-0.61,0.36-0.99c0-0.45-0.2-0.86-0.5-1.14
				c0.05-0.04,0.1-0.08,0.14-0.12l1.52-1.52l1.52,1.52C31.08-23.76,31.11-23.74,31.13-23.72"/>
		</g>
		<g>
			<path class="st3" d="M21.55-20.47v-0.51v-3.1v-0.79l-0.06,0c-0.02,0-0.04-0.01-0.06-0.02l-1.54-1.54c0.19-0.28,0.3-0.61,0.3-0.94
				c0-0.33-0.1-0.66-0.3-0.94l1.54-1.54c0.02-0.02,0.08-0.03,0.1-0.03h0.01v-0.44v-3.1v-0.86c0,0,0,0-0.01,0
				c-0.02,0-0.08-0.01-0.1-0.03l-1.54-1.54c0.19-0.28,0.3-0.61,0.3-0.94c0-0.31-0.09-0.63-0.27-0.9h-0.06H17.7
				c-0.18,0.27-0.27,0.59-0.27,0.9c0,0.33,0.1,0.65,0.29,0.94l-1.54,1.54c-0.02,0.02-0.04,0.02-0.06,0.03
				c-0.03,0-0.05-0.01-0.06-0.03l-1.54-1.54c0.2-0.28,0.3-0.61,0.29-0.94c0-0.31-0.09-0.63-0.27-0.9h-0.06h-2.15
				c-0.18,0.27-0.27,0.59-0.27,0.9c0,0.33,0.1,0.65,0.29,0.94l-1.54,1.54c-0.02,0.01-0.07,0-0.09,0v0.85v3.11v0.43
				c0.02,0,0.07,0.03,0.09,0.05l1.54,1.54c-0.2,0.28-0.29,0.61-0.29,0.94c0,0.32,0.1,0.66,0.29,0.94l-1.54,1.54
				c-0.02,0.01-0.07-0.01-0.09-0.01v0.79V-21v0.5c0.02,0,0.07,0.04,0.09,0.05l1.54,1.54c-0.01,0.01-0.05,0.07-0.06,0.08l2.12,0.01
				l0.09-0.09l1.54-1.54c0.02-0.02,0.04-0.03,0.06-0.03c0.02,0,0.04,0.01,0.06,0.03l1.54,1.54c-0.01,0.01-0.05,0.06-0.06,0.08h2.14
				l0.08-0.08l1.54-1.54C21.44-20.46,21.52-20.47,21.55-20.47c0,0-0.06,0-0.06,0 M13.44-25.31l1.52,1.52
				c0.03,0.03,0.07,0.07,0.11,0.1c-0.32,0.29-0.53,0.7-0.53,1.17c0,0.39,0.14,0.75,0.38,1.02l-1.48,1.48l-1.48-1.48
				c0.24-0.27,0.38-0.63,0.38-1.02c0-0.47-0.21-0.88-0.53-1.17c0.04-0.03,0.07-0.06,0.11-0.1L13.44-25.31z M15.11-33.06
				c-0.35,0.28-0.57,0.72-0.57,1.2c0,0.37,0.13,0.71,0.35,0.98l-1.45,1.45l-1.45-1.45c0.22-0.27,0.35-0.61,0.35-0.98
				c0-0.48-0.22-0.92-0.57-1.2c0.05-0.04,0.1-0.09,0.15-0.13l1.52-1.52l1.52,1.52C15.01-33.14,15.06-33.1,15.11-33.06 M17.73-28.3
				c-0.2,0.28-0.3,0.61-0.29,0.94c0,0.32,0.1,0.66,0.29,0.94l-1.54,1.54c-0.02,0.02-0.04,0.02-0.06,0.02
				c-0.03,0-0.05-0.01-0.06-0.02l-1.54-1.54c0.2-0.28,0.3-0.61,0.29-0.94c0-0.33-0.1-0.66-0.29-0.94l1.54-1.54
				c0.02-0.02,0.04-0.02,0.06-0.02c0.02,0,0.04,0.01,0.06,0.02L17.73-28.3z M18.8-29.42l-1.48-1.48c0.2-0.26,0.33-0.59,0.33-0.95
				c0-0.47-0.21-0.9-0.54-1.18c0.06-0.04,0.12-0.09,0.18-0.15l1.52-1.52l1.52,1.52c0.04,0.04,0.08,0.08,0.12,0.11
				c-0.36,0.28-0.6,0.73-0.6,1.23c0,0.39,0.14,0.74,0.38,1.01L18.8-29.42z M20.41-23.72c-0.34,0.28-0.56,0.71-0.56,1.19
				c0,0.4,0.15,0.77,0.41,1.05l-1.45,1.45l-1.51-1.51c0.22-0.27,0.36-0.61,0.36-0.99c0-0.45-0.2-0.86-0.5-1.14
				c0.05-0.04,0.1-0.08,0.14-0.12l1.52-1.52l1.52,1.52C20.35-23.76,20.38-23.74,20.41-23.72"/>
		</g>
		<g>
			<path class="st3" d="M10.82-20.47v-0.51v-3.1v-0.79l-0.06,0c-0.02,0-0.04-0.01-0.06-0.02l-1.54-1.54c0.19-0.28,0.3-0.61,0.3-0.94
				c0-0.33-0.1-0.66-0.3-0.94l1.54-1.54c0.02-0.02,0.08-0.03,0.1-0.03h0.01v-0.44v-3.1v-0.86c0,0,0,0-0.01,0
				c-0.02,0-0.08-0.01-0.1-0.03l-1.54-1.54c0.19-0.28,0.3-0.61,0.3-0.94c0-0.31-0.09-0.63-0.27-0.9H9.12H6.97
				c-0.18,0.27-0.27,0.59-0.27,0.9c0,0.33,0.1,0.65,0.29,0.94l-1.54,1.54c-0.02,0.02-0.04,0.02-0.06,0.03
				c-0.03,0-0.05-0.01-0.06-0.03l-1.54-1.54c0.2-0.28,0.3-0.61,0.29-0.94c0-0.31-0.09-0.63-0.27-0.9H3.76H1.6
				c-0.18,0.27-0.27,0.59-0.27,0.9c0,0.33,0.1,0.65,0.29,0.94l-1.54,1.54c-0.02,0.01-0.07,0-0.09,0v0.85v3.11v0.43
				c0.02,0,0.07,0.03,0.09,0.05l1.54,1.54c-0.2,0.28-0.29,0.61-0.29,0.94c0,0.32,0.1,0.66,0.29,0.94l-1.54,1.54
				C0.07-24.87,0.02-24.9,0-24.9v0.79V-21v0.5c0.02,0,0.07,0.04,0.09,0.05l1.54,1.54c-0.01,0.01-0.05,0.07-0.06,0.08l2.12,0.01
				l0.09-0.09l1.54-1.54c0.02-0.02,0.04-0.03,0.06-0.03c0.02,0,0.04,0.01,0.06,0.03L7-18.9c-0.01,0.01-0.05,0.06-0.06,0.08h2.14
				l0.08-0.08l1.54-1.54C10.72-20.46,10.79-20.47,10.82-20.47c0,0-0.06,0-0.06,0 M2.71-25.31l1.52,1.52
				c0.03,0.03,0.07,0.07,0.11,0.1c-0.32,0.29-0.53,0.7-0.53,1.17c0,0.39,0.14,0.75,0.38,1.02l-1.48,1.48l-1.48-1.48
				c0.24-0.27,0.38-0.63,0.38-1.02c0-0.47-0.21-0.88-0.53-1.17c0.04-0.03,0.07-0.06,0.11-0.1L2.71-25.31z M4.38-33.06
				c-0.35,0.28-0.57,0.72-0.57,1.2c0,0.37,0.13,0.71,0.35,0.98l-1.45,1.45l-1.45-1.45c0.22-0.27,0.35-0.61,0.35-0.98
				c0-0.48-0.22-0.92-0.57-1.2c0.05-0.04,0.1-0.09,0.15-0.13l1.52-1.52l1.52,1.52C4.28-33.14,4.33-33.1,4.38-33.06 M7-28.3
				c-0.2,0.28-0.3,0.61-0.29,0.94c0,0.32,0.1,0.66,0.29,0.94l-1.54,1.54c-0.02,0.02-0.04,0.02-0.06,0.02
				c-0.03,0-0.05-0.01-0.06-0.02l-1.54-1.54c0.2-0.28,0.3-0.61,0.29-0.94c0-0.33-0.1-0.66-0.29-0.94l1.54-1.54
				c0.02-0.02,0.04-0.02,0.06-0.02c0.02,0,0.04,0.01,0.06,0.02L7-28.3z M8.08-29.42L6.59-30.9c0.2-0.26,0.33-0.59,0.33-0.95
				c0-0.47-0.21-0.9-0.54-1.18c0.06-0.04,0.12-0.09,0.18-0.15l1.52-1.52l1.52,1.52c0.04,0.04,0.08,0.08,0.12,0.11
				c-0.36,0.28-0.6,0.73-0.6,1.23c0,0.39,0.14,0.74,0.38,1.01L8.08-29.42z M9.68-23.72C9.33-23.43,9.12-23,9.12-22.52
				c0,0.4,0.15,0.77,0.41,1.05l-1.45,1.45l-1.51-1.51c0.22-0.27,0.36-0.61,0.36-0.99c0-0.45-0.2-0.86-0.5-1.14
				c0.05-0.04,0.09-0.08,0.14-0.12l1.52-1.52l1.52,1.52C9.62-23.76,9.65-23.74,9.68-23.72"/>
		</g>
	</g>
</pattern>
<pattern  x="-225.4" y="-190.57" width="10.73" height="18.81" patternUnits="userSpaceOnUse" id="_x30_22_Royal_Mesh" viewBox="10.77 -18.86 10.73 18.81" style="overflow:visible;">
	<g>
		<rect x="10.77" y="-18.86" class="st0" width="10.73" height="18.81"/>
		<g>
			<path class="st5" d="M32.28-1.66v-0.51v-3.1v-0.79l-0.06,0c-0.02,0-0.04-0.01-0.06-0.02l-1.54-1.54c0.19-0.28,0.3-0.61,0.3-0.94
				c0-0.33-0.1-0.66-0.3-0.94l1.54-1.54c0.02-0.02,0.08-0.03,0.1-0.03h0.01v-0.44v-3.1v-0.86c0,0,0,0-0.01,0
				c-0.02,0-0.08-0.01-0.1-0.03l-1.54-1.54c0.19-0.28,0.3-0.61,0.3-0.94c0-0.31-0.09-0.63-0.27-0.9h-0.06h-2.15
				c-0.18,0.27-0.27,0.59-0.27,0.9c0,0.33,0.1,0.65,0.29,0.94l-1.54,1.54c-0.02,0.02-0.04,0.02-0.06,0.03
				c-0.03,0-0.05-0.01-0.06-0.03l-1.54-1.54c0.2-0.28,0.3-0.61,0.29-0.94c0-0.31-0.09-0.63-0.27-0.9h-0.06h-2.15
				c-0.18,0.27-0.27,0.59-0.27,0.9c0,0.33,0.1,0.65,0.29,0.94l-1.54,1.54c-0.02,0.01-0.07,0-0.09,0v0.85v3.11v0.43
				c0.02,0,0.07,0.03,0.09,0.05l1.54,1.54c-0.2,0.28-0.29,0.61-0.29,0.94c0,0.32,0.1,0.66,0.29,0.94l-1.54,1.54
				c-0.02,0.01-0.07-0.01-0.09-0.01v0.79v3.11v0.5c0.02,0,0.07,0.04,0.09,0.05l1.54,1.54c-0.01,0.01-0.05,0.07-0.06,0.08L25.15,0
				l0.09-0.09l1.54-1.54c0.02-0.02,0.04-0.03,0.06-0.03c0.02,0,0.04,0.01,0.06,0.03l1.54,1.54c-0.01,0.01-0.05,0.06-0.06,0.08h2.14
				l0.08-0.08l1.54-1.54C32.17-1.65,32.25-1.66,32.28-1.66c0,0-0.06,0-0.06,0 M24.16-6.5l1.52,1.52c0.03,0.03,0.07,0.07,0.11,0.1
				c-0.32,0.29-0.53,0.7-0.53,1.17c0,0.39,0.14,0.75,0.38,1.02l-1.48,1.48L22.68-2.7c0.24-0.27,0.38-0.63,0.38-1.02
				c0-0.47-0.21-0.88-0.53-1.17c0.04-0.03,0.07-0.06,0.11-0.1L24.16-6.5z M25.84-14.25c-0.35,0.28-0.57,0.72-0.57,1.2
				c0,0.37,0.13,0.71,0.35,0.98l-1.45,1.45l-1.45-1.45c0.22-0.27,0.35-0.61,0.35-0.98c0-0.48-0.22-0.92-0.57-1.2
				c0.05-0.04,0.1-0.09,0.15-0.13l1.52-1.52l1.52,1.52C25.73-14.33,25.78-14.29,25.84-14.25 M28.45-9.49
				c-0.2,0.28-0.3,0.61-0.29,0.94c0,0.32,0.1,0.66,0.29,0.94l-1.54,1.54c-0.02,0.02-0.04,0.02-0.06,0.02
				c-0.03,0-0.05-0.01-0.06-0.02l-1.54-1.54c0.2-0.28,0.3-0.61,0.29-0.94c0-0.33-0.1-0.66-0.29-0.94l1.54-1.54
				c0.02-0.02,0.04-0.02,0.06-0.02c0.02,0,0.04,0.01,0.06,0.02L28.45-9.49z M29.53-10.61l-1.48-1.48c0.2-0.26,0.33-0.59,0.33-0.95
				c0-0.47-0.21-0.9-0.54-1.18c0.06-0.04,0.12-0.09,0.18-0.15l1.52-1.52l1.52,1.52c0.04,0.04,0.08,0.08,0.12,0.11
				c-0.36,0.28-0.6,0.73-0.6,1.23c0,0.39,0.14,0.74,0.38,1.01L29.53-10.61z M31.13-4.91c-0.34,0.28-0.56,0.71-0.56,1.19
				c0,0.4,0.15,0.77,0.41,1.05l-1.45,1.45l-1.51-1.51c0.22-0.27,0.36-0.61,0.36-0.99c0-0.45-0.2-0.86-0.5-1.14
				c0.05-0.04,0.1-0.08,0.14-0.12l1.52-1.52l1.52,1.52C31.08-4.95,31.11-4.93,31.13-4.91"/>
		</g>
		<g>
			<rect x="10.77" y="-18.86" class="st6" width="10.73" height="18.81"/>
			<path class="st5" d="M21.55-1.66v-0.51v-3.1v-0.79l-0.06,0c-0.02,0-0.04-0.01-0.06-0.02l-1.54-1.54c0.19-0.28,0.3-0.61,0.3-0.94
				c0-0.33-0.1-0.66-0.3-0.94l1.54-1.54c0.02-0.02,0.08-0.03,0.1-0.03h0.01v-0.44v-3.1v-0.86c0,0,0,0-0.01,0
				c-0.02,0-0.08-0.01-0.1-0.03l-1.54-1.54c0.19-0.28,0.3-0.61,0.3-0.94c0-0.31-0.09-0.63-0.27-0.9h-0.06H17.7
				c-0.18,0.27-0.27,0.59-0.27,0.9c0,0.33,0.1,0.65,0.29,0.94l-1.54,1.54c-0.02,0.02-0.04,0.02-0.06,0.03
				c-0.03,0-0.05-0.01-0.06-0.03l-1.54-1.54c0.2-0.28,0.3-0.61,0.29-0.94c0-0.31-0.09-0.63-0.27-0.9h-0.06h-2.15
				c-0.18,0.27-0.27,0.59-0.27,0.9c0,0.33,0.1,0.65,0.29,0.94l-1.54,1.54c-0.02,0.01-0.07,0-0.09,0v0.85v3.11v0.43
				c0.02,0,0.07,0.03,0.09,0.05l1.54,1.54c-0.2,0.28-0.29,0.61-0.29,0.94c0,0.32,0.1,0.66,0.29,0.94l-1.54,1.54
				c-0.02,0.01-0.07-0.01-0.09-0.01v0.79v3.11v0.5c0.02,0,0.07,0.04,0.09,0.05l1.54,1.54c-0.01,0.01-0.05,0.07-0.06,0.08L14.42,0
				l0.09-0.09l1.54-1.54c0.02-0.02,0.04-0.03,0.06-0.03c0.02,0,0.04,0.01,0.06,0.03l1.54,1.54c-0.01,0.01-0.05,0.06-0.06,0.08h2.14
				l0.08-0.08l1.54-1.54C21.44-1.65,21.52-1.66,21.55-1.66c0,0-0.06,0-0.06,0 M13.44-6.5l1.52,1.52c0.03,0.03,0.07,0.07,0.11,0.1
				c-0.32,0.29-0.53,0.7-0.53,1.17c0,0.39,0.14,0.75,0.38,1.02l-1.48,1.48L11.95-2.7c0.24-0.27,0.38-0.63,0.38-1.02
				c0-0.47-0.21-0.88-0.53-1.17c0.04-0.03,0.07-0.06,0.11-0.1L13.44-6.5z M15.11-14.25c-0.35,0.28-0.57,0.72-0.57,1.2
				c0,0.37,0.13,0.71,0.35,0.98l-1.45,1.45l-1.45-1.45c0.22-0.27,0.35-0.61,0.35-0.98c0-0.48-0.22-0.92-0.57-1.2
				c0.05-0.04,0.1-0.09,0.15-0.13l1.52-1.52l1.52,1.52C15.01-14.33,15.06-14.29,15.11-14.25 M17.73-9.49
				c-0.2,0.28-0.3,0.61-0.29,0.94c0,0.32,0.1,0.66,0.29,0.94l-1.54,1.54c-0.02,0.02-0.04,0.02-0.06,0.02
				c-0.03,0-0.05-0.01-0.06-0.02l-1.54-1.54c0.2-0.28,0.3-0.61,0.29-0.94c0-0.33-0.1-0.66-0.29-0.94l1.54-1.54
				c0.02-0.02,0.04-0.02,0.06-0.02c0.02,0,0.04,0.01,0.06,0.02L17.73-9.49z M18.8-10.61l-1.48-1.48c0.2-0.26,0.33-0.59,0.33-0.95
				c0-0.47-0.21-0.9-0.54-1.18c0.06-0.04,0.12-0.09,0.18-0.15l1.52-1.52l1.52,1.52c0.04,0.04,0.08,0.08,0.12,0.11
				c-0.36,0.28-0.6,0.73-0.6,1.23c0,0.39,0.14,0.74,0.38,1.01L18.8-10.61z M20.41-4.91c-0.34,0.28-0.56,0.71-0.56,1.19
				c0,0.4,0.15,0.77,0.41,1.05L18.8-1.21l-1.51-1.51c0.22-0.27,0.36-0.61,0.36-0.99c0-0.45-0.2-0.86-0.5-1.14
				c0.05-0.04,0.1-0.08,0.14-0.12L18.8-6.5l1.52,1.52C20.35-4.95,20.38-4.93,20.41-4.91"/>
		</g>
		<g>
			<path class="st5" d="M10.82-1.66v-0.51v-3.1v-0.79l-0.06,0c-0.02,0-0.04-0.01-0.06-0.02L9.16-7.62c0.19-0.28,0.3-0.61,0.3-0.94
				c0-0.33-0.1-0.66-0.3-0.94l1.54-1.54c0.02-0.02,0.08-0.03,0.1-0.03h0.01v-0.44v-3.1v-0.86c0,0,0,0-0.01,0
				c-0.02,0-0.08-0.01-0.1-0.03l-1.54-1.54c0.19-0.28,0.3-0.61,0.3-0.94c0-0.31-0.09-0.63-0.27-0.9H9.12H6.97
				c-0.18,0.27-0.27,0.59-0.27,0.9c0,0.33,0.1,0.65,0.29,0.94l-1.54,1.54c-0.02,0.02-0.04,0.02-0.06,0.03
				c-0.03,0-0.05-0.01-0.06-0.03l-1.54-1.54c0.2-0.28,0.3-0.61,0.29-0.94c0-0.31-0.09-0.63-0.27-0.9H3.76H1.6
				c-0.18,0.27-0.27,0.59-0.27,0.9c0,0.33,0.1,0.65,0.29,0.94l-1.54,1.54c-0.02,0.01-0.07,0-0.09,0v0.85v3.11v0.43
				c0.02,0,0.07,0.03,0.09,0.05l1.54,1.54c-0.2,0.28-0.29,0.61-0.29,0.94c0,0.32,0.1,0.66,0.29,0.94L0.09-6.08
				C0.07-6.06,0.02-6.09,0-6.09v0.79v3.11v0.5c0.02,0,0.07,0.04,0.09,0.05l1.54,1.54C1.62-0.08,1.58-0.02,1.57-0.01L3.69,0
				l0.09-0.09l1.54-1.54c0.02-0.02,0.04-0.03,0.06-0.03c0.02,0,0.04,0.01,0.06,0.03L7-0.09C6.99-0.08,6.95-0.03,6.94-0.01h2.14
				l0.08-0.08l1.54-1.54C10.72-1.65,10.79-1.66,10.82-1.66c0,0-0.06,0-0.06,0 M2.71-6.5l1.52,1.52c0.03,0.03,0.07,0.07,0.11,0.1
				C4.01-4.6,3.81-4.18,3.81-3.71c0,0.39,0.14,0.75,0.38,1.02L2.71-1.21L1.23-2.7c0.24-0.27,0.38-0.63,0.38-1.02
				c0-0.47-0.21-0.88-0.53-1.17c0.04-0.03,0.07-0.06,0.11-0.1L2.71-6.5z M4.38-14.25c-0.35,0.28-0.57,0.72-0.57,1.2
				c0,0.37,0.13,0.71,0.35,0.98l-1.45,1.45l-1.45-1.45c0.22-0.27,0.35-0.61,0.35-0.98c0-0.48-0.22-0.92-0.57-1.2
				c0.05-0.04,0.1-0.09,0.15-0.13l1.52-1.52l1.52,1.52C4.28-14.33,4.33-14.29,4.38-14.25 M7-9.49C6.8-9.21,6.7-8.88,6.7-8.55
				C6.7-8.23,6.8-7.9,7-7.62L5.45-6.08C5.44-6.06,5.42-6.05,5.39-6.05c-0.03,0-0.05-0.01-0.06-0.02L3.79-7.62
				c0.2-0.28,0.3-0.61,0.29-0.94c0-0.33-0.1-0.66-0.29-0.94l1.54-1.54c0.02-0.02,0.04-0.02,0.06-0.02c0.02,0,0.04,0.01,0.06,0.02
				L7-9.49z M8.08-10.61l-1.48-1.48c0.2-0.26,0.33-0.59,0.33-0.95c0-0.47-0.21-0.9-0.54-1.18c0.06-0.04,0.12-0.09,0.18-0.15
				l1.52-1.52l1.52,1.52c0.04,0.04,0.08,0.08,0.12,0.11c-0.36,0.28-0.6,0.73-0.6,1.23c0,0.39,0.14,0.74,0.38,1.01L8.08-10.61z
				 M9.68-4.91C9.33-4.62,9.12-4.19,9.12-3.71c0,0.4,0.15,0.77,0.41,1.05L8.08-1.21L6.56-2.73c0.22-0.27,0.36-0.61,0.36-0.99
				c0-0.45-0.2-0.86-0.5-1.14c0.05-0.04,0.09-0.08,0.14-0.12L8.08-6.5L9.6-4.98C9.62-4.95,9.65-4.93,9.68-4.91"/>
		</g>
		<g>
			<path class="st5" d="M32.28-20.47v-0.51v-3.1v-0.79l-0.06,0c-0.02,0-0.04-0.01-0.06-0.02l-1.54-1.54c0.19-0.28,0.3-0.61,0.3-0.94
				c0-0.33-0.1-0.66-0.3-0.94l1.54-1.54c0.02-0.02,0.08-0.03,0.1-0.03h0.01v-0.44v-3.1v-0.86c0,0,0,0-0.01,0
				c-0.02,0-0.08-0.01-0.1-0.03l-1.54-1.54c0.19-0.28,0.3-0.61,0.3-0.94c0-0.31-0.09-0.63-0.27-0.9h-0.06h-2.15
				c-0.18,0.27-0.27,0.59-0.27,0.9c0,0.33,0.1,0.65,0.29,0.94l-1.54,1.54c-0.02,0.02-0.04,0.02-0.06,0.03
				c-0.03,0-0.05-0.01-0.06-0.03l-1.54-1.54c0.2-0.28,0.3-0.61,0.29-0.94c0-0.31-0.09-0.63-0.27-0.9h-0.06h-2.15
				c-0.18,0.27-0.27,0.59-0.27,0.9c0,0.33,0.1,0.65,0.29,0.94l-1.54,1.54c-0.02,0.01-0.07,0-0.09,0v0.85v3.11v0.43
				c0.02,0,0.07,0.03,0.09,0.05l1.54,1.54c-0.2,0.28-0.29,0.61-0.29,0.94c0,0.32,0.1,0.66,0.29,0.94l-1.54,1.54
				c-0.02,0.01-0.07-0.01-0.09-0.01v0.79V-21v0.5c0.02,0,0.07,0.04,0.09,0.05l1.54,1.54c-0.01,0.01-0.05,0.07-0.06,0.08l2.12,0.01
				l0.09-0.09l1.54-1.54c0.02-0.02,0.04-0.03,0.06-0.03c0.02,0,0.04,0.01,0.06,0.03l1.54,1.54c-0.01,0.01-0.05,0.06-0.06,0.08h2.14
				l0.08-0.08l1.54-1.54C32.17-20.46,32.25-20.47,32.28-20.47c0,0-0.06,0-0.06,0 M24.16-25.31l1.52,1.52
				c0.03,0.03,0.07,0.07,0.11,0.1c-0.32,0.29-0.53,0.7-0.53,1.17c0,0.39,0.14,0.75,0.38,1.02l-1.48,1.48l-1.48-1.48
				c0.24-0.27,0.38-0.63,0.38-1.02c0-0.47-0.21-0.88-0.53-1.17c0.04-0.03,0.07-0.06,0.11-0.1L24.16-25.31z M25.84-33.06
				c-0.35,0.28-0.57,0.72-0.57,1.2c0,0.37,0.13,0.71,0.35,0.98l-1.45,1.45l-1.45-1.45c0.22-0.27,0.35-0.61,0.35-0.98
				c0-0.48-0.22-0.92-0.57-1.2c0.05-0.04,0.1-0.09,0.15-0.13l1.52-1.52l1.52,1.52C25.73-33.14,25.78-33.1,25.84-33.06 M28.45-28.3
				c-0.2,0.28-0.3,0.61-0.29,0.94c0,0.32,0.1,0.66,0.29,0.94l-1.54,1.54c-0.02,0.02-0.04,0.02-0.06,0.02
				c-0.03,0-0.05-0.01-0.06-0.02l-1.54-1.54c0.2-0.28,0.3-0.61,0.29-0.94c0-0.33-0.1-0.66-0.29-0.94l1.54-1.54
				c0.02-0.02,0.04-0.02,0.06-0.02c0.02,0,0.04,0.01,0.06,0.02L28.45-28.3z M29.53-29.42l-1.48-1.48c0.2-0.26,0.33-0.59,0.33-0.95
				c0-0.47-0.21-0.9-0.54-1.18c0.06-0.04,0.12-0.09,0.18-0.15l1.52-1.52l1.52,1.52c0.04,0.04,0.08,0.08,0.12,0.11
				c-0.36,0.28-0.6,0.73-0.6,1.23c0,0.39,0.14,0.74,0.38,1.01L29.53-29.42z M31.13-23.72c-0.34,0.28-0.56,0.71-0.56,1.19
				c0,0.4,0.15,0.77,0.41,1.05l-1.45,1.45l-1.51-1.51c0.22-0.27,0.36-0.61,0.36-0.99c0-0.45-0.2-0.86-0.5-1.14
				c0.05-0.04,0.1-0.08,0.14-0.12l1.52-1.52l1.52,1.52C31.08-23.76,31.11-23.74,31.13-23.72"/>
		</g>
		<g>
			<path class="st5" d="M21.55-20.47v-0.51v-3.1v-0.79l-0.06,0c-0.02,0-0.04-0.01-0.06-0.02l-1.54-1.54c0.19-0.28,0.3-0.61,0.3-0.94
				c0-0.33-0.1-0.66-0.3-0.94l1.54-1.54c0.02-0.02,0.08-0.03,0.1-0.03h0.01v-0.44v-3.1v-0.86c0,0,0,0-0.01,0
				c-0.02,0-0.08-0.01-0.1-0.03l-1.54-1.54c0.19-0.28,0.3-0.61,0.3-0.94c0-0.31-0.09-0.63-0.27-0.9h-0.06H17.7
				c-0.18,0.27-0.27,0.59-0.27,0.9c0,0.33,0.1,0.65,0.29,0.94l-1.54,1.54c-0.02,0.02-0.04,0.02-0.06,0.03
				c-0.03,0-0.05-0.01-0.06-0.03l-1.54-1.54c0.2-0.28,0.3-0.61,0.29-0.94c0-0.31-0.09-0.63-0.27-0.9h-0.06h-2.15
				c-0.18,0.27-0.27,0.59-0.27,0.9c0,0.33,0.1,0.65,0.29,0.94l-1.54,1.54c-0.02,0.01-0.07,0-0.09,0v0.85v3.11v0.43
				c0.02,0,0.07,0.03,0.09,0.05l1.54,1.54c-0.2,0.28-0.29,0.61-0.29,0.94c0,0.32,0.1,0.66,0.29,0.94l-1.54,1.54
				c-0.02,0.01-0.07-0.01-0.09-0.01v0.79V-21v0.5c0.02,0,0.07,0.04,0.09,0.05l1.54,1.54c-0.01,0.01-0.05,0.07-0.06,0.08l2.12,0.01
				l0.09-0.09l1.54-1.54c0.02-0.02,0.04-0.03,0.06-0.03c0.02,0,0.04,0.01,0.06,0.03l1.54,1.54c-0.01,0.01-0.05,0.06-0.06,0.08h2.14
				l0.08-0.08l1.54-1.54C21.44-20.46,21.52-20.47,21.55-20.47c0,0-0.06,0-0.06,0 M13.44-25.31l1.52,1.52
				c0.03,0.03,0.07,0.07,0.11,0.1c-0.32,0.29-0.53,0.7-0.53,1.17c0,0.39,0.14,0.75,0.38,1.02l-1.48,1.48l-1.48-1.48
				c0.24-0.27,0.38-0.63,0.38-1.02c0-0.47-0.21-0.88-0.53-1.17c0.04-0.03,0.07-0.06,0.11-0.1L13.44-25.31z M15.11-33.06
				c-0.35,0.28-0.57,0.72-0.57,1.2c0,0.37,0.13,0.71,0.35,0.98l-1.45,1.45l-1.45-1.45c0.22-0.27,0.35-0.61,0.35-0.98
				c0-0.48-0.22-0.92-0.57-1.2c0.05-0.04,0.1-0.09,0.15-0.13l1.52-1.52l1.52,1.52C15.01-33.14,15.06-33.1,15.11-33.06 M17.73-28.3
				c-0.2,0.28-0.3,0.61-0.29,0.94c0,0.32,0.1,0.66,0.29,0.94l-1.54,1.54c-0.02,0.02-0.04,0.02-0.06,0.02
				c-0.03,0-0.05-0.01-0.06-0.02l-1.54-1.54c0.2-0.28,0.3-0.61,0.29-0.94c0-0.33-0.1-0.66-0.29-0.94l1.54-1.54
				c0.02-0.02,0.04-0.02,0.06-0.02c0.02,0,0.04,0.01,0.06,0.02L17.73-28.3z M18.8-29.42l-1.48-1.48c0.2-0.26,0.33-0.59,0.33-0.95
				c0-0.47-0.21-0.9-0.54-1.18c0.06-0.04,0.12-0.09,0.18-0.15l1.52-1.52l1.52,1.52c0.04,0.04,0.08,0.08,0.12,0.11
				c-0.36,0.28-0.6,0.73-0.6,1.23c0,0.39,0.14,0.74,0.38,1.01L18.8-29.42z M20.41-23.72c-0.34,0.28-0.56,0.71-0.56,1.19
				c0,0.4,0.15,0.77,0.41,1.05l-1.45,1.45l-1.51-1.51c0.22-0.27,0.36-0.61,0.36-0.99c0-0.45-0.2-0.86-0.5-1.14
				c0.05-0.04,0.1-0.08,0.14-0.12l1.52-1.52l1.52,1.52C20.35-23.76,20.38-23.74,20.41-23.72"/>
		</g>
		<g>
			<path class="st5" d="M10.82-20.47v-0.51v-3.1v-0.79l-0.06,0c-0.02,0-0.04-0.01-0.06-0.02l-1.54-1.54c0.19-0.28,0.3-0.61,0.3-0.94
				c0-0.33-0.1-0.66-0.3-0.94l1.54-1.54c0.02-0.02,0.08-0.03,0.1-0.03h0.01v-0.44v-3.1v-0.86c0,0,0,0-0.01,0
				c-0.02,0-0.08-0.01-0.1-0.03l-1.54-1.54c0.19-0.28,0.3-0.61,0.3-0.94c0-0.31-0.09-0.63-0.27-0.9H9.12H6.97
				c-0.18,0.27-0.27,0.59-0.27,0.9c0,0.33,0.1,0.65,0.29,0.94l-1.54,1.54c-0.02,0.02-0.04,0.02-0.06,0.03
				c-0.03,0-0.05-0.01-0.06-0.03l-1.54-1.54c0.2-0.28,0.3-0.61,0.29-0.94c0-0.31-0.09-0.63-0.27-0.9H3.76H1.6
				c-0.18,0.27-0.27,0.59-0.27,0.9c0,0.33,0.1,0.65,0.29,0.94l-1.54,1.54c-0.02,0.01-0.07,0-0.09,0v0.85v3.11v0.43
				c0.02,0,0.07,0.03,0.09,0.05l1.54,1.54c-0.2,0.28-0.29,0.61-0.29,0.94c0,0.32,0.1,0.66,0.29,0.94l-1.54,1.54
				C0.07-24.87,0.02-24.9,0-24.9v0.79V-21v0.5c0.02,0,0.07,0.04,0.09,0.05l1.54,1.54c-0.01,0.01-0.05,0.07-0.06,0.08l2.12,0.01
				l0.09-0.09l1.54-1.54c0.02-0.02,0.04-0.03,0.06-0.03c0.02,0,0.04,0.01,0.06,0.03L7-18.9c-0.01,0.01-0.05,0.06-0.06,0.08h2.14
				l0.08-0.08l1.54-1.54C10.72-20.46,10.79-20.47,10.82-20.47c0,0-0.06,0-0.06,0 M2.71-25.31l1.52,1.52
				c0.03,0.03,0.07,0.07,0.11,0.1c-0.32,0.29-0.53,0.7-0.53,1.17c0,0.39,0.14,0.75,0.38,1.02l-1.48,1.48l-1.48-1.48
				c0.24-0.27,0.38-0.63,0.38-1.02c0-0.47-0.21-0.88-0.53-1.17c0.04-0.03,0.07-0.06,0.11-0.1L2.71-25.31z M4.38-33.06
				c-0.35,0.28-0.57,0.72-0.57,1.2c0,0.37,0.13,0.71,0.35,0.98l-1.45,1.45l-1.45-1.45c0.22-0.27,0.35-0.61,0.35-0.98
				c0-0.48-0.22-0.92-0.57-1.2c0.05-0.04,0.1-0.09,0.15-0.13l1.52-1.52l1.52,1.52C4.28-33.14,4.33-33.1,4.38-33.06 M7-28.3
				c-0.2,0.28-0.3,0.61-0.29,0.94c0,0.32,0.1,0.66,0.29,0.94l-1.54,1.54c-0.02,0.02-0.04,0.02-0.06,0.02
				c-0.03,0-0.05-0.01-0.06-0.02l-1.54-1.54c0.2-0.28,0.3-0.61,0.29-0.94c0-0.33-0.1-0.66-0.29-0.94l1.54-1.54
				c0.02-0.02,0.04-0.02,0.06-0.02c0.02,0,0.04,0.01,0.06,0.02L7-28.3z M8.08-29.42L6.59-30.9c0.2-0.26,0.33-0.59,0.33-0.95
				c0-0.47-0.21-0.9-0.54-1.18c0.06-0.04,0.12-0.09,0.18-0.15l1.52-1.52l1.52,1.52c0.04,0.04,0.08,0.08,0.12,0.11
				c-0.36,0.28-0.6,0.73-0.6,1.23c0,0.39,0.14,0.74,0.38,1.01L8.08-29.42z M9.68-23.72C9.33-23.43,9.12-23,9.12-22.52
				c0,0.4,0.15,0.77,0.41,1.05l-1.45,1.45l-1.51-1.51c0.22-0.27,0.36-0.61,0.36-0.99c0-0.45-0.2-0.86-0.5-1.14
				c0.05-0.04,0.09-0.08,0.14-0.12l1.52-1.52l1.52,1.52C9.62-23.76,9.65-23.74,9.68-23.72"/>
		</g>
	</g>
</pattern>
<pattern  id="SVGID_1_" xlink:href="#_x30_22_Royal_Mesh" patternTransform="matrix(1 0 0 1 -2.3595 -14.3315)">
</pattern>
<circle class="st7" cx="24.6" cy="24.6" r="24.1"/>
<pattern  id="SVGID_00000003088784146164878520000006044088952892414909_" xlink:href="#_x30_13_Aqua_Mesh" patternTransform="matrix(1 0 0 1 -2.3595 -14.3315)">
</pattern>
<circle style="display:none;fill:url(#SVGID_00000003088784146164878520000006044088952892414909_);stroke:#07756A;stroke-miterlimit:10;" cx="24.6" cy="24.6" r="24.1"/>
<pattern  id="SVGID_00000155129529082387713060000017503045273398919852_" xlink:href="#_x30_12_Red_Mesh" patternTransform="matrix(1 0 0 1 -2.3595 -14.3315)">
</pattern>
<circle style="fill:url(#SVGID_00000155129529082387713060000017503045273398919852_);stroke:#7A0B0B;stroke-miterlimit:10;" cx="24.6" cy="24.6" r="24.1"/>
</svg>
